<svg xmlns="http://www.w3.org/2000/svg" width="24" height="24" viewBox="0 0 24 24">
  <metadata><?xpacket begin="﻿" id="W5M0MpCehiHzreSzNTczkc9d"?>
<x:xmpmeta xmlns:x="adobe:ns:meta/" x:xmptk="Adobe XMP Core 5.6-c140 79.160451, 2017/05/06-01:08:21        ">
   <rdf:RDF xmlns:rdf="http://www.w3.org/1999/02/22-rdf-syntax-ns#">
      <rdf:Description rdf:about=""/>
   </rdf:RDF>
</x:xmpmeta>
                                                                                                    
                                                                                                    
                                                                                                    
                                                                                                    
                                                                                                    
                                                                                                    
                                                                                                    
                                                                                                    
                                                                                                    
                                                                                                    
                                                                                                    
                                                                                                    
                                                                                                    
                                                                                                    
                                                                                                    
                                                                                                    
                                                                                                    
                                                                                                    
                                                                                                    
                                                                                                    
                           
<?xpacket end="w"?></metadata>
<defs>
    <style>
      .cls-1 {
        fill: #fff;
        fill-rule: evenodd;
      }
    </style>
  </defs>
  <path class="cls-1" d="M200.485,6422.52a11.9,11.9,0,0,0-8.323-3.51A0.887,0.887,0,0,0,192,6419a0.9,0.9,0,0,0-.163.01,11.991,11.991,0,0,0,0,23.98,0.9,0.9,0,0,0,.163.01,0.887,0.887,0,0,0,.162-0.01A11.99,11.99,0,0,0,200.485,6422.52Zm-15.962,1.01a10.47,10.47,0,0,1,4.5-2.68,11.51,11.51,0,0,0-1.091,1.5,14.192,14.192,0,0,0-1.135,2.29h-3.247A10.484,10.484,0,0,1,184.523,6423.53Zm-1.88,2.54h3.675a17.917,17.917,0,0,0-.664,4.22h-4.2A10.451,10.451,0,0,1,182.643,6426.07Zm0,9.86a10.5,10.5,0,0,1-1.192-4.22h4.2a17.917,17.917,0,0,0,.664,4.22h-3.675Zm1.88,2.54a10.484,10.484,0,0,1-.971-1.11H186.8a14.192,14.192,0,0,0,1.135,2.29,10.747,10.747,0,0,0,1.091,1.49A10.449,10.449,0,0,1,184.523,6438.47Zm6.764,2.81a7.7,7.7,0,0,1-2.139-2.38,12.912,12.912,0,0,1-.807-1.54h2.946v3.92h0Zm0-5.35h-3.48a16.267,16.267,0,0,1-.725-4.22h4.205v4.22h0Zm0-5.64h-4.205a16.267,16.267,0,0,1,.725-4.22h3.48v4.22h0Zm0-5.65h-2.946a12.188,12.188,0,0,1,.807-1.54,7.7,7.7,0,0,1,2.139-2.38v3.92h0Zm10.07,1.43a10.466,10.466,0,0,1,1.192,4.22h-4.2a17.814,17.814,0,0,0-.664-4.22h3.676Zm-1.881-2.54a10.381,10.381,0,0,1,.972,1.11H197.2a14.275,14.275,0,0,0-1.135-2.29,11.422,11.422,0,0,0-1.092-1.5A10.464,10.464,0,0,1,199.476,6423.53Zm-6.763-2.81a7.726,7.726,0,0,1,2.139,2.38,12.188,12.188,0,0,1,.807,1.54h-2.946v-3.92h0Zm0,5.35h3.48a16.309,16.309,0,0,1,.725,4.22h-4.205v-4.22Zm4.205,5.64a16.309,16.309,0,0,1-.725,4.22h-3.48v-4.22h4.205Zm-4.205,9.57v-3.92h2.945a12.906,12.906,0,0,1-.806,1.54A7.726,7.726,0,0,1,192.713,6441.28Zm6.763-2.81a10.443,10.443,0,0,1-4.5,2.67,10.67,10.67,0,0,0,1.092-1.49,14.275,14.275,0,0,0,1.135-2.29h3.247A10.381,10.381,0,0,1,199.476,6438.47Zm1.881-2.54h-3.676a17.814,17.814,0,0,0,.664-4.22h4.2A10.512,10.512,0,0,1,201.357,6435.93Z" transform="translate(-180 -6419)"/>
</svg>
